<?xml version="1.0" encoding="UTF-8" standalone="no"?>
<!-- Created with Inkscape (http://www.inkscape.org/) -->

<svg
   width="120.09106mm"
   height="37.084042mm"
   viewBox="0 0 120.09106 37.084042"
   version="1.1"
   id="svg1"
   xml:space="preserve"
   xmlns="http://www.w3.org/2000/svg"
   xmlns:svg="http://www.w3.org/2000/svg"><defs
     id="defs1" /><g
     id="layer1"
     transform="translate(-20.30326,-95.869108)"><g
       id="g11"
       transform="translate(-146.04834,7.0724599)"><path
         id="path3"
         style="baseline-shift:baseline;display:inline;overflow:visible;opacity:1;vector-effect:none;fill:#404040;fill-opacity:1;stroke-linecap:round;stroke-linejoin:round;enable-background:accumulate;stop-color:#000000;stop-opacity:1"
         d="m 172.21119,96.593587 c -3.22473,0 -5.85959,2.634857 -5.85959,5.859593 v 17.56843 c 0,3.22473 2.63486,5.85908 5.85959,5.85908 h 17.56792 c 3.03131,0 5.54149,-2.32814 5.83169,-5.28598 h -2.45566 c -0.26576,1.63581 -1.65462,2.85047 -3.37603,2.85047 h -17.56792 c -1.91723,0 -3.42408,-1.50633 -3.42408,-3.42357 v -17.56843 c 0,-1.91724 1.50685,-3.422015 3.42408,-3.422015 h 17.56792 c 1.91724,0 3.42202,1.504775 3.42202,3.422015 v 10.27586 h 2.43757 v -10.27586 c 0,-3.224736 -2.63486,-5.859593 -5.85959,-5.859593 z" /><g
         id="g10"
         transform="matrix(0.38168575,0.21827129,-0.21827129,0.38168575,180.37473,55.228064)"
         style="display:inline"><path
           id="path4"
           style="display:inline;fill:#ffffff;fill-opacity:1;stroke:none;stroke-width:0.470001;stroke-linecap:round;stroke-linejoin:round"
           d="m 65.079788,69.133822 -6.653825,7.276464 0.415459,6.238118 -2.183241,13.619095 -2.182421,0.935291 -5.198453,5.7185 -0.905131,4.02828 7.965956,13.69785 7.963974,3.14941 7.361891,-2.28338 20.215422,-12.43369 -0.185786,-0.64923 L 82.024751,93.980288 77.13885,84.520197 75.995114,71.212839 Z" /><path
           id="path5"
           style="opacity:1;fill:#000000;fill-opacity:1;stroke-width:0.265;stroke-dasharray:none"
           d="m 62.989603,65.474032 c -0.599134,0.333999 -1.221895,0.758761 -1.886808,1.307801 -1.429456,1.498762 -2.642725,3.457112 -3.092857,5.678749 -0.424141,2.143667 -0.415934,5.717089 -0.415934,5.717089 0,0 0.0698,4.35246 0.338153,6.550399 -0.225458,2.197939 -0.595795,4.485991 -1.68907,6.419424 -1.015303,1.881453 -2.009922,3.252217 -3.327372,4.91116 -1.23948,1.710923 -3.689656,5.276746 -3.689656,5.276746 -0.69908,1.13009 -1.386735,2.37249 -2.002378,3.63896 l 2.268402,3.90041 c 0.120828,-0.64443 0.289093,-1.27164 0.499951,-1.99046 0.264224,-1.08288 0.671121,-1.98406 1.143266,-2.88502 0.30754,-0.71033 0.718721,-1.36845 1.078242,-2.01382 0.338025,-0.67154 0.741108,-1.40744 1.248069,-2.02701 l 0.961407,-1.325576 -0.727762,1.663116 c -0.420205,0.8014 -0.801287,1.56387 -1.260478,2.41726 -0.346405,0.87938 -0.732011,1.51182 -1.000445,2.31323 -0.428848,0.83591 -0.662403,1.7233 -0.844345,2.67617 -0.155474,0.95419 -0.233654,1.85765 -0.09264,2.90158 l 1.778024,3.0571 c -0.02022,-0.40306 -0.02969,-0.80006 -0.02225,-1.18953 0.160293,-1.43379 0.37204,-2.04883 0.662283,-3.07977 0.3812,-1.05678 0.658454,-2.16568 1.039654,-3.22246 0.402911,-1.20856 0.87109,-2.26047 1.559892,-3.35207 0.48939,-0.88367 0.874784,-1.76841 1.195239,-2.65208 0.355189,-0.814428 0.728589,-1.775425 1.065401,-2.497957 0.570478,-1.342643 0.884319,-2.335542 1.326152,-3.531162 0.353954,-0.933383 0.577932,-1.965886 0.747185,-2.898154 0.115717,-0.676011 0.224258,-1.35153 0.275,-2.040536 0.03439,-0.441431 0.01331,-0.464184 0.0088,-0.652211 0.582409,0.26461 1.275812,0.640449 1.711199,1.088837 0.542286,0.569473 0.873003,0.963767 1.44745,1.418379 0.612684,0.399676 1.083325,0.685169 1.700604,0.786207 0.72627,0.159825 1.503501,0.204755 2.234366,0.107292 0.676529,-0.135578 1.01779,-0.326539 1.464597,-0.535627 0.475147,-0.23179 1.000799,-0.606743 1.452973,-0.8661 0.424436,-0.259932 0.682663,-0.436808 1.107098,-0.69674 0.517157,-0.286421 1.149105,-0.480816 1.730584,-0.712104 0.512307,-0.232942 0.927982,-0.576302 1.210565,-0.804649 0.422121,-0.429004 0.619821,-0.591726 1.00976,-1.016106 0.135369,0.836692 0.261237,1.371101 0.506864,2.221628 l 1.273703,3.716472 1.195758,2.962245 c 0.398568,1.420828 1.238443,2.92002 1.740971,3.873026 0.493854,0.9269 0.936684,1.82798 1.430538,2.75488 0.415803,0.96166 0.752551,1.76666 1.220335,2.7803 0.407168,0.98769 0.737124,1.32513 1.040334,2.8846 0.147166,0.99622 0.553785,1.99251 0.648972,3.04071 0.545875,0.052 1.351315,0.0789 1.89719,0.13087 0.15589,-0.70177 0.311898,-1.22143 0.389818,-2.20909 -0.0086,-1.21285 -0.06883,-1.95782 -0.103448,-2.96275 -0.09533,-1.00494 -0.450056,-1.90586 -0.909246,-2.78085 -0.441833,-0.85766 -0.883832,-1.71619 -1.325665,-2.57385 -0.478612,-0.77322 -1.015934,-1.403459 -1.611502,-2.027236 L 80.82938,97.176703 c 0.42233,0.173284 0.818254,0.399108 1.188604,0.695845 0.314038,0.322727 0.68043,0.567864 0.974976,0.942571 0.582572,0.625869 1.125895,1.225421 1.636995,1.974751 0.532819,0.77543 1.058915,1.51166 1.494272,2.39755 0.532819,1.12622 1.092222,2.15525 1.378135,3.43742 0.151615,1.16737 0.173035,2.33481 0.142724,3.59964 -0.0051,0.49032 -0.07164,1.04134 -0.163929,1.56001 l 6.378525,-3.92247 c -0.110033,-0.40725 -0.248743,-0.80164 -0.425615,-1.17279 -0.628567,-1.99176 -1.614121,-3.59979 -2.468695,-5.22371 -0.880564,-1.597896 -1.786297,-2.872763 -2.962489,-4.470172 -1.124212,-1.545429 -2.773316,-3.463775 -4.132986,-5.068062 -0.683928,-1.240425 -1.344284,-2.220435 -2.1309,-3.794913 -0.370774,-1.444527 -0.555116,-2.858622 -0.650413,-5.223722 -0.05198,-2.174504 -0.02561,-3.257605 -0.10358,-6.497704 -0.08663,-2.321782 -0.744841,-4.461929 -1.663158,-6.653761 -1.143564,-2.599009 -2.624742,-3.612171 -4.98984,-4.989646 -1.377476,-0.649753 -3.743267,-0.831989 -6.082372,-0.754018 -1.877785,0.272895 -3.462645,0.458514 -5.260049,1.46051 z m -2.251155,10.095822 c 0.05973,-0.03259 0.123259,-0.05888 0.189339,-0.07849 0.531888,-0.137385 0.698097,-0.141511 0.883512,-0.13834 0.407914,0.007 0.782991,0.191288 1.054095,0.380136 0.561865,0.375783 1.068573,0.879501 1.354771,1.53095 0.318179,0.551376 0.415669,1.158963 0.476558,1.820605 0.01843,0.684244 0.05417,1.018356 0.04249,1.542165 -0.307233,0.0157 -0.619619,0.137661 -0.894691,0.277415 -0.261527,0.146507 -0.456838,0.301277 -0.732522,0.475765 -0.04545,-0.155609 -0.0403,-0.321856 -0.0403,-0.645781 -0.0061,-0.441908 -0.02185,-0.543462 -0.06009,-0.971587 -0.06516,-0.397765 -0.09264,-0.455374 -0.295624,-0.853139 -0.177233,-0.241876 -0.354937,-0.419455 -0.743514,-0.597008 -0.297668,-0.115511 -0.53442,-0.13007 -0.892965,0.204672 -0.353286,0.422553 -0.40829,0.526014 -0.474423,1.147277 -0.02051,0.738266 0.01058,1.186053 0.17845,1.846213 0.293009,0.645361 0.462635,0.895534 0.738604,1.187408 0,0 -0.208954,0.220155 -0.388666,0.3739 -0.152145,0.130772 -0.44117,0.301029 -0.44117,0.301029 -0.649483,-0.473063 -1.019628,-1.200378 -1.235795,-1.907678 -0.181645,-0.83493 -0.308034,-1.522428 -0.324279,-2.449247 0.11389,-0.837871 0.28337,-1.528373 0.636172,-2.2376 0.279711,-0.45947 0.551942,-0.980537 0.970048,-1.208665 z m 9.096039,-0.557796 c 0.121667,-0.06166 0.249822,-0.115273 0.390048,-0.160773 0.35254,-0.100391 0.681585,-0.220572 1.049672,-0.217114 0.05258,4.94e-4 0.10506,0.003 0.159484,0.009 0.515053,0.03598 0.967604,0.210523 1.363879,0.403359 0.374662,0.216469 0.684557,0.452098 0.987746,0.76603 0.346536,0.405039 0.660465,0.823514 0.883548,1.313021 0.18638,0.541569 0.412424,1.075843 0.47535,1.695382 0.0259,0.66695 0.01282,1.146208 -0.05875,1.793665 -0.108197,0.502599 -0.229971,0.889231 -0.40964,1.326854 -0.229656,0.476416 -0.452201,0.932117 -0.733838,1.356553 l -4.37e-4,0.0016 c -0.318397,-0.18038 -0.516211,-0.26568 -0.912714,-0.450154 -0.275122,-0.158102 -0.66346,-0.375702 -1.000308,-0.397355 0.205725,-0.20389 0.348657,-0.600198 0.510028,-1.037664 0.116975,-0.529687 0.09062,-1.021057 0.07764,-1.521505 -0.02161,-0.504542 -0.12754,-0.97926 -0.331084,-1.412329 -0.12892,-0.353044 -0.488213,-0.569611 -0.870536,-0.75047 -0.246841,-0.106063 -0.507665,-0.07629 -0.871462,-0.01342 -0.363933,0.178683 -0.76942,0.425635 -0.922184,0.906453 -0.09095,0.268545 -0.174736,0.466039 -0.226701,0.841793 -0.01292,0.372415 -0.06553,1.068775 -0.03947,1.450936 0.012,0.149525 0.02077,0.282924 0.0211,0.339946 -0.321636,-0.06853 -0.626787,-0.193433 -1.003653,-0.372426 -0.312202,-0.118451 -0.592168,-0.203721 -0.946604,-0.218211 -0.02142,-0.391559 0.06148,-1.479668 0.148121,-2.200851 0.05628,-0.556659 0.256072,-1.100234 0.46829,-1.624405 0.208023,-0.435351 0.467716,-0.7603 0.779699,-1.09169 0.347581,-0.297315 0.647766,-0.551221 1.012768,-0.736215 z m -14.16439,44.486132 0.668035,1.14923 1.377046,0.54476 c -0.202806,-0.18535 -0.408638,-0.37021 -0.615072,-0.55944 -0.511061,-0.40602 -0.956685,-0.76991 -1.430009,-1.13455 z m 27.470572,-6.32142 c -0.200909,0.13199 -0.361847,0.30007 -0.499119,0.51695 -0.274911,0.4089 -0.385287,0.80952 -0.355569,1.28645 l 3.586426,-2.20663 c -0.421571,-0.0511 -0.868785,-0.0517 -1.319726,-0.009 -0.630822,0.0731 -1.077164,0.19216 -1.412012,0.41213 z" /><path
           style="opacity:1;fill:#ff8904;fill-opacity:1;stroke-width:0.264999;stroke-dasharray:none"
           d="m 58.845634,85.566921 c -0.10396,0.269541 -0.116955,0.539081 0,0.808622 0.166823,0.38278 0.359636,0.648604 0.584937,0.953414 0.240769,0.1938 0.42306,0.504555 0.66383,0.698355 0.328262,0.277897 0.689012,0.497316 1.049761,0.72973 0.339836,0.140461 0.621194,0.332902 0.883059,0.55783 0.350292,0.305182 0.681092,0.616861 0.966409,0.974022 0.353753,0.378513 0.759487,0.633572 1.171718,0.895129 0.35456,0.206614 0.761101,0.348253 1.167642,0.431414 0.515693,0.07686 1.076867,0.08223 1.573067,0.0096 0.400043,-0.09616 0.936534,-0.296273 1.265105,-0.476897 0.302889,-0.17227 0.605777,-0.351037 0.908666,-0.536302 0.294788,-0.217995 0.570083,-0.371015 0.884363,-0.556523 0.361057,-0.235387 0.709118,-0.412295 1.128654,-0.576209 0.420895,-0.173691 0.809302,-0.386368 1.230198,-0.56006 0.414396,-0.174 0.939252,-0.348 1.295171,-0.606468 0.314588,-0.246395 0.629176,-0.505785 0.885287,-0.797663 0.296646,-0.354561 0.560804,-0.696126 0.753489,-1.102667 0.07964,-0.257289 0.217751,-0.514577 0.23891,-0.771866 -0.10154,-0.369027 -0.25506,-0.712064 -0.441068,-1.029111 -0.255059,-0.321892 -0.52961,-0.546322 -0.882131,-0.790244 -0.524048,-0.214035 -0.944136,-0.402081 -1.409707,-0.622614 -0.447936,-0.161504 -0.967344,-0.329505 -1.402285,-0.452024 -0.542426,-0.185073 -0.902921,-0.428623 -1.38687,-0.698164 -0.502325,-0.263415 -0.959168,-0.591805 -1.461494,-0.85522 -0.372566,-0.175241 -0.738635,-0.285507 -1.156683,-0.382778 -0.438837,-0.09412 -0.949148,-0.142755 -1.45296,-0.113421 -0.42993,0.0096 -0.820873,0.06478 -1.23131,0.165401 -0.460008,0.131798 -0.751081,0.270093 -1.100631,0.499354 -0.398184,0.263414 -0.750886,0.585307 -1.045111,0.926692 -0.281421,0.298004 -0.59533,0.56352 -0.870253,0.861524 -0.324674,0.269541 -0.69483,0.565072 -1.045494,0.76314 -0.378512,0.189096 -0.659562,0.33271 -1.018582,0.567289 -0.313538,0.290766 -0.555602,0.620516 -0.745687,1.086715 z"
           id="path8" /><path
           style="opacity:1;fill:none;fill-opacity:1;stroke:#000000;stroke-width:0.264999;stroke-dasharray:none;stroke-opacity:1"
           d="m 60.29748,85.98042 c 0.306296,0.388997 0.667725,0.722861 1.047532,1.01078 0.370619,0.278729 0.759616,0.575835 1.130234,0.854564 0.505389,0.300171 1.001588,0.572775 1.571299,0.725924 0.548271,0.177652 1.041408,0.235849 1.589679,0.220534 0.398185,-0.03676 0.851504,0.01838 1.240501,-0.07351 0.373681,-0.05513 0.627906,-0.137833 0.946454,-0.284855 0.349178,-0.128645 0.716733,-0.192967 1.019966,-0.385934 0.352241,-0.174589 0.649348,-0.339989 1.001589,-0.514578 0.352241,-0.21747 0.704481,-0.462506 1.056722,-0.679976 0.343052,-0.199093 0.704481,-0.398186 1.047533,-0.597279 0.480885,-0.287918 0.897449,-0.465569 1.470223,-0.634031"
           id="path9" /><path
           style="display:none;fill:#ffffff;fill-opacity:1;fill-rule:evenodd;stroke:none;stroke-width:0.470001;stroke-linecap:round;stroke-linejoin:round;stroke-opacity:1"
           d="m 175.471,103.50363 0.0735,10.07102 2.35235,2.94045 3.308,0.73511 16.09893,-0.51458 -0.0735,15.65786 -44.91528,-2.20533 -0.0735,-29.40444 z"
           id="path10"
           transform="matrix(1.9743078,-1.1290301,1.1290301,1.9743078,-418.46938,94.611305)" /></g><path
         id="path11"
         style="baseline-shift:baseline;display:inline;overflow:visible;opacity:1;vector-effect:none;fill:#ff8904;fill-rule:evenodd;stroke-linecap:round;stroke-linejoin:round;enable-background:accumulate;stop-color:#000000;stop-opacity:1"
         d="m 180.1642,88.796647 c -3.12002,0 -5.68787,2.466605 -5.85133,5.547465 h 2.44068 c 0.15337,-1.765891 1.59878,-3.109888 3.41065,-3.109888 h 17.56843 c 1.91725,0 3.4215,1.504775 3.4215,3.422014 v 17.568432 c 0,1.91724 -1.50425,3.42357 -3.4215,3.42357 H 180.1642 c -1.91724,0 -3.42408,-1.50633 -3.42408,-3.42357 v -10.03142 h -2.43551 v 10.03142 c 0,3.22473 2.63486,5.85908 5.85959,5.85908 h 17.56843 c 3.22474,0 5.85908,-2.63435 5.85908,-5.85908 V 94.656238 c 0,-3.224731 -2.63434,-5.859591 -5.85908,-5.859591 z" /></g><text
       xml:space="preserve"
       style="font-size:16.9333px;line-height:0.6;writing-mode:lr-tb;direction:ltr;fill:#404040;fill-opacity:1;fill-rule:evenodd;stroke:none;stroke-width:0.470001;stroke-linecap:round;stroke-linejoin:round;stroke-opacity:1"
       x="59.673267"
       y="120.80198"
       id="text12"><tspan
         style="font-style:normal;font-variant:normal;font-weight:600;font-stretch:normal;font-size:16.9333px;line-height:0.6;font-family:FreeSans;-inkscape-font-specification:'FreeSans, Semi-Bold';font-variant-ligatures:normal;font-variant-caps:all-small-caps;font-variant-numeric:normal;font-variant-east-asian:normal;fill:#404040;fill-opacity:1;stroke-width:0.47"
         x="59.673267"
         y="120.80198"
         id="tspan11">wallpaper</tspan><tspan
         style="font-style:normal;font-variant:normal;font-weight:600;font-stretch:normal;font-size:16.9333px;line-height:0.6;font-family:FreeSans;-inkscape-font-specification:'FreeSans, Semi-Bold';font-variant-ligatures:normal;font-variant-caps:all-small-caps;font-variant-numeric:normal;font-variant-east-asian:normal;fill:#404040;fill-opacity:1;stroke-width:0.47"
         x="59.673267"
         y="131.64326"
         id="tspan12">engine</tspan></text><text
       xml:space="preserve"
       style="font-size:16.9333px;line-height:0.6;writing-mode:lr-tb;direction:ltr;fill:#ff8904;fill-opacity:1;fill-rule:evenodd;stroke:none;stroke-width:0.470001;stroke-linecap:round;stroke-linejoin:round;stroke-opacity:1"
       x="59.298832"
       y="110.35789"
       id="text13"><tspan
         style="font-style:normal;font-variant:normal;font-weight:600;font-stretch:normal;font-size:16.9333px;line-height:0.6;font-family:FreeSans;-inkscape-font-specification:'FreeSans, Semi-Bold';font-variant-ligatures:normal;font-variant-caps:all-small-caps;font-variant-numeric:normal;font-variant-east-asian:normal;fill:#ff8904;fill-opacity:1;stroke-width:0.47"
         x="59.298832"
         y="110.35789"
         id="tspan13">LINUX</tspan></text></g></svg>
